<svg id="visual" viewBox="0 0 900 600" width="900" height="600" xmlns="http://www.w3.org/2000/svg" xmlns:xlink="http://www.w3.org/1999/xlink" version="1.1"><rect x="0" y="0" width="900" height="600" fill="#000"></rect><defs><linearGradient id="grad1_0" x1="33.3%" y1="0%" x2="100%" y2="100%"><stop offset="20%" stop-color="#000000" stop-opacity="1"></stop><stop offset="80%" stop-color="#000000" stop-opacity="1"></stop></linearGradient></defs><defs><linearGradient id="grad2_0" x1="0%" y1="0%" x2="66.7%" y2="100%"><stop offset="20%" stop-color="#000000" stop-opacity="1"></stop><stop offset="80%" stop-color="#000000" stop-opacity="1"></stop></linearGradient></defs><g transform="translate(900, 0)"><path d="M0 459.7C-62.9 456.3 -125.9 452.8 -175.9 424.7C-226 396.6 -263.1 343.8 -297 297C-330.9 250.1 -361.5 209.2 -388 160.7C-414.6 112.2 -437.2 56.1 -459.7 0L0 0Z" fill="#FFFFFF"></path></g><g transform="translate(0, 600)"><path d="M0 -459.7C53.3 -441.4 106.7 -423.2 168 -405.6C229.3 -388 298.7 -371 325.1 -325.1C351.4 -279.1 334.9 -204.1 350.2 -145C365.4 -86 412.6 -43 459.7 0L0 0Z" fill="#FFFFFF"></path></g></svg>