<svg xmlns:mydata="http://www.w3.org/2000/svg" mydata:contrastcolor="d0b8d3" mydata:template="Default" mydata:presentation="2.5" mydata:layouttype="undefined" mydata:specialfontid="undefined" mydata:id1="729" mydata:id2="729" mydata:companyname="11 maktab" mydata:companytagline="Umum ta'lim maktabi" version="1.1" xmlns="http://www.w3.org/2000/svg" xmlns:xlink="http://www.w3.org/1999/xlink" viewBox="0 0 550 470"><g fill="white" stroke="none" stroke-width="10" stroke-linecap="butt" stroke-linejoin="miter" stroke-miterlimit="10" stroke-dasharray="" stroke-dashoffset="0" font-family="none" font-weight="none" font-size="none" text-anchor="none" style="mix-blend-mode: normal"><g data-paper-data="{&quot;isGlobalGroup&quot;:true,&quot;bounds&quot;:{&quot;x&quot;:146.00020326820606,&quot;y&quot;:106,&quot;width&quot;:257.99959346358787,&quot;height&quot;:258}}"><g data-paper-data="{&quot;fillRule&quot;:&quot;evenodd&quot;,&quot;fillRuleOriginal&quot;:&quot;evenodd&quot;,&quot;isIcon&quot;:true,&quot;iconStyle&quot;:&quot;standalone&quot;,&quot;selectedEffects&quot;:{&quot;container&quot;:&quot;enclosed_circle_outline3&quot;,&quot;transformation&quot;:&quot;&quot;,&quot;pattern&quot;:&quot;&quot;},&quot;bounds&quot;:{&quot;x&quot;:194.7900609725832,&quot;y&quot;:152.59496761496274,&quot;width&quot;:160.41926825021528,&quot;height&quot;:125.1441037644799},&quot;widthRatioIconToContainer&quot;:0.8964251328616485,&quot;heightRatioIconToContainer&quot;:0.8843230225031986,&quot;relativeBoundsIconToContainer&quot;:{&quot;top&quot;:-0.05783848874840071,&quot;left&quot;:7.629150067702991e-7},&quot;iconType&quot;:&quot;icon&quot;,&quot;rawIconId&quot;:&quot;4405&quot;,&quot;combineTerms&quot;:&quot;school&quot;,&quot;isDetailed&quot;:false,&quot;blockLetter&quot;:&quot;O&quot;,&quot;suitableAsStandaloneIcon&quot;:false}" fill-rule="evenodd"><path d="M274.9998,167.64982l65.91978,32.76714l5.98218,-12.03927l-71.80846,-35.69788l-0.02876,-0.08484l-0.06474,0.03739l-0.06474,-0.03739l-0.02876,0.08484l-71.8084,35.69788l5.98222,12.03927zM194.79006,234.99949c0,10.87759 2.10152,21.28564 6.30455,31.2224c1.70585,4.03284 3.70675,7.87258 6.00263,11.51718h1.27388v-10.40428c-0.55919,-1.15456 -1.09053,-2.3264 -1.59393,-3.51654c-3.87812,-9.16841 -5.81717,-18.77497 -5.81717,-28.81876c0,-9.58054 1.76443,-18.76318 5.29325,-27.54803l-2.80276,-8.66919l-0.02095,-0.04218c-0.83161,1.64403 -1.60994,3.32313 -2.33495,5.03729c-4.20303,9.93704 -6.30455,20.3444 -6.30455,31.2221zM337.31461,277.73907v-63.96281c-32.47718,-14.30409 -58.4206,0.83411 -61.69647,3.85834c-4.31559,-4.12004 -29.06989,-18.44435 -62.93285,-3.85834v63.96281h6.42226v-58.04527c5.50481,-3.17373 12.91932,-5.10213 21.10178,-5.10213c17.02066,0 30.80133,5.57961 30.80133,15.95361v47.1938h8.38085v-47.1938c0,-10.374 13.79083,-15.95361 30.79086,-15.95361c8.18256,0 15.5988,1.92841 21.09314,5.10213v58.04527zM342.90246,277.73907h-1.27348v-10.4053c0.55899,-1.15355 1.08952,-2.32539 1.59362,-3.51552c3.87836,-9.16841 5.81754,-18.77497 5.81754,-28.81876c0,-9.71886 -1.8162,-19.02834 -5.44759,-27.92824l0.81612,-3.02514l2.31319,-5.00406c0.77445,1.54758 1.50215,3.12606 2.1831,4.73534c4.20257,9.93707 6.30436,20.3444 6.30436,31.2221c0,10.87759 -2.10179,21.28564 -6.30436,31.2224c-1.7061,4.03284 -3.70693,7.8719 -6.00251,11.51718z" data-paper-data="{&quot;isPathIcon&quot;:true}"></path></g><g><path d="M159.60568,316.39351v0h8.9806c-0.57149,-0.93888 -1.02052,-2.28597 -1.02052,-3.34732v-19.71651l-7.96008,2.77582c0.69396,0.73478 1.06134,1.59202 1.06134,2.69418v14.2465c0,1.06134 -0.44903,2.40843 -1.06134,3.34732z" data-paper-data="{&quot;glyphName&quot;:&quot;1&quot;,&quot;glyphIndex&quot;:0,&quot;firstGlyphOfWord&quot;:true,&quot;word&quot;:1}" fill-rule="nonzero"></path><path d="M178.31528,316.39351v0h8.9806c-0.57149,-0.93888 -1.02052,-2.28597 -1.02052,-3.34732v-19.71651l-7.96008,2.77582c0.69396,0.73478 1.06134,1.59202 1.06134,2.69418v14.2465c0,1.06134 -0.44903,2.40843 -1.06134,3.34732z" data-paper-data="{&quot;glyphName&quot;:&quot;1&quot;,&quot;glyphIndex&quot;:1,&quot;lastGlyphOfWord&quot;:true,&quot;word&quot;:1}" fill-rule="nonzero"></path><path d="M229.94014,316.39351v0h8.9806c-0.57149,-0.93888 -1.02052,-2.28597 -1.02052,-3.34732v-16.36919c0,-1.06134 0.44903,-2.40843 1.02052,-3.34732h-8.9806c0.16328,0.93888 0.04082,2.28597 -0.44903,3.34732l-3.46978,7.71516l-3.46978,-7.71516c-0.48985,-1.06134 -0.65313,-2.40843 -0.48985,-3.34732h-8.9806c0.61231,0.93888 1.06134,2.28597 1.06134,3.34732v16.36919c0,1.06134 -0.44903,2.40843 -1.06134,3.34732h6.00068c-0.61231,-0.93888 -1.06134,-2.28597 -1.06134,-3.34732v-11.06247l6.53135,14.40979l6.44971,-14.36897v11.02165c0,1.06134 -0.44903,2.40843 -1.06134,3.34732z" data-paper-data="{&quot;glyphName&quot;:&quot;M&quot;,&quot;glyphIndex&quot;:2,&quot;firstGlyphOfWord&quot;:true,&quot;word&quot;:2}" fill-rule="nonzero"></path><path d="M253.83399,316.39351c-0.24493,-0.93888 -0.24493,-2.28597 0.12246,-3.34732l0.48985,-1.42873h7.42941l0.48985,1.42873c0.36739,1.06134 0.40821,2.40843 0.12246,3.34732h8.9806c-0.89806,-0.93888 -1.83694,-2.28597 -2.20433,-3.34732l-6.77627,-19.71651h-7.71516c0.57149,0.65313 0.93888,1.34709 1.34709,2.08187l-6.08232,17.63464c-0.36739,1.06134 -1.26545,2.40843 -2.20433,3.34732zM255.54847,308.47425l2.61254,-7.87844l2.65336,7.87844z" data-paper-data="{&quot;glyphName&quot;:&quot;A&quot;,&quot;glyphIndex&quot;:3,&quot;word&quot;:2}" fill-rule="nonzero"></path><path d="M280.3812,316.39351v0h8.9806c-0.57149,-0.93888 -1.02052,-2.28597 -1.02052,-3.34732v-7.83762c2.32679,1.10217 5.38836,7.63351 6.0415,11.18493h8.73568c-2.36761,-2.97993 -4.32702,-8.36829 -6.40889,-11.59314c-1.26545,-1.87776 -2.36761,-2.5309 -4.2862,-2.5309c2.77582,-2.69418 6.85792,-6.73545 10.12359,-8.93978h-6.57217c-1.34709,2.89829 -5.42918,7.14366 -7.63351,9.30717v-5.95986c0,-1.06134 0.44903,-2.40843 1.02052,-3.34732h-8.9806c0.61231,0.93888 1.06134,2.28597 1.06134,3.34732v16.36919c0,1.06134 -0.44903,2.40843 -1.06134,3.34732z" data-paper-data="{&quot;glyphName&quot;:&quot;K&quot;,&quot;glyphIndex&quot;:4,&quot;word&quot;:2}" fill-rule="nonzero"></path><path d="M326.03261,316.39351c-1.7553,-3.34732 -1.38791,-15.87934 -1.38791,-19.92061c2.77582,0 5.79657,1.22463 7.26613,2.81664l-0.81642,-5.95986h-19.14502l-0.81642,5.95986c1.46955,-1.59202 4.4903,-2.81664 7.30695,-2.81664c0,4.04127 0.36739,16.5733 -1.42873,19.92061z" data-paper-data="{&quot;glyphName&quot;:&quot;T&quot;,&quot;glyphIndex&quot;:5,&quot;word&quot;:2}" fill-rule="nonzero"></path><path d="M343.27265,316.39351c-0.24493,-0.93888 -0.24493,-2.28597 0.12246,-3.34732l0.48985,-1.42873h7.42941l0.48985,1.42873c0.36739,1.06134 0.40821,2.40843 0.12246,3.34732h8.9806c-0.89806,-0.93888 -1.83694,-2.28597 -2.20433,-3.34732l-6.77627,-19.71651h-7.71516c0.57149,0.65313 0.93888,1.34709 1.34709,2.08187l-6.08232,17.63464c-0.36739,1.06134 -1.26545,2.40843 -2.20433,3.34732zM344.98713,308.47425l2.61254,-7.87844l2.65336,7.87844z" data-paper-data="{&quot;glyphName&quot;:&quot;A&quot;,&quot;glyphIndex&quot;:6,&quot;word&quot;:2}" fill-rule="nonzero"></path><path d="M369.81986,316.39351v0c4.24538,0 7.0212,0.12246 10.5318,0.12246c4.77605,0 10.04195,-1.34709 10.04195,-6.89874c0,-2.65336 -2.08187,-4.57194 -4.36784,-5.22508c1.51037,-0.53067 3.18403,-2.36761 3.18403,-4.89851c0,-3.18403 -2.00023,-6.28642 -8.85814,-6.28642c-3.22485,0 -7.30695,0.12246 -10.5318,0.12246c0.61231,0.93888 1.06134,2.28597 1.06134,3.34732v16.36919c0,1.06134 -0.44903,2.40843 -1.06134,3.34732zM377.77994,305.65761v0c2.735,0 5.71493,0.28575 5.71493,3.87799c0,3.55142 -2.93911,3.83717 -5.71493,3.83717zM379.53524,296.35044v0c2.69418,0 3.38814,1.51037 3.38814,3.02075c0,2.89829 -2.81664,3.38814 -5.14344,3.38814v-6.16396c0.48985,-0.16328 1.02052,-0.24493 1.7553,-0.24493z" data-paper-data="{&quot;glyphName&quot;:&quot;B&quot;,&quot;glyphIndex&quot;:7,&quot;lastGlyphOfWord&quot;:true,&quot;word&quot;:2}" fill-rule="nonzero"></path><path d="M154.04922,281.29017h241.90116v3.5511h-241.90116z" fill-rule="evenodd"></path><path d="M372.44038,328.31017v9.09219c0,0.05827 0.00271,0.1162 0.00813,0.17379c0.00542,0.05827 0.01389,0.11586 0.02541,0.17278c0.01152,0.05692 0.02575,0.11315 0.04269,0.16871c0.01694,0.05556 0.03659,0.11044 0.05895,0.16465c0.02168,0.05353 0.04641,0.1057 0.07419,0.15652c0.0271,0.05149 0.05692,0.10163 0.08944,0.15042c0.03252,0.04811 0.06708,0.09452 0.10367,0.13924c0.03727,0.0454 0.07623,0.08842 0.11688,0.12908c0.04133,0.04133 0.08436,0.08029 0.12908,0.11688c0.0454,0.03727 0.09215,0.07182 0.14026,0.10367c0.04811,0.03252 0.09791,0.06267 0.1494,0.09045c0.05149,0.0271 0.10401,0.05183 0.15753,0.07419c0.05353,0.02236 0.10807,0.04201 0.16363,0.05895c0.05624,0.01694 0.11281,0.03083 0.16973,0.04167c0.05692,0.01152 0.11417,0.01999 0.17176,0.02541c0.05827,0.0061 0.11654,0.00915 0.17481,0.00915c0.27916,0 0.54374,-0.06267 0.79376,-0.18802l21.73445,-10.86672c0.05217,-0.02642 0.10265,-0.05488 0.15143,-0.08537c0.04946,-0.03117 0.09723,-0.06471 0.1433,-0.10062c0.04607,-0.03523 0.09012,-0.07284 0.13212,-0.11281c0.04201,-0.03998 0.08198,-0.08198 0.11993,-0.12603c0.03862,-0.04404 0.07453,-0.08978 0.10773,-0.13721c0.03388,-0.04743 0.06505,-0.09621 0.0935,-0.14635c0.02914,-0.05082 0.05556,-0.10265 0.07927,-0.1555c0.02371,-0.05353 0.04472,-0.10773 0.06301,-0.16261c0.01829,-0.05556 0.03388,-0.11146 0.04675,-0.1677c0.01287,-0.05692 0.02304,-0.11417 0.03049,-0.17176c0.00745,-0.05759 0.01186,-0.11552 0.01321,-0.17379c0.00136,-0.05827 0,-0.1162 -0.00407,-0.17379c-0.00407,-0.05827 -0.01084,-0.1162 -0.02033,-0.17379c-0.01016,-0.05692 -0.0227,-0.11349 -0.0376,-0.16973c-0.01558,-0.05624 -0.03388,-0.11146 -0.05488,-0.16566c-0.02033,-0.0542 -0.0437,-0.10739 -0.07013,-0.15957c-0.03659,-0.07318 -0.07826,-0.14364 -0.12501,-0.2114c-0.04607,-0.06776 -0.09689,-0.13179 -0.15245,-0.19209c-0.05488,-0.0603 -0.11417,-0.11688 -0.17786,-0.16973c-0.06301,-0.05217 -0.12941,-0.09994 -0.1992,-0.1433c-0.06979,-0.04269 -0.14229,-0.08063 -0.2175,-0.11383c-0.07453,-0.0332 -0.15143,-0.06098 -0.23071,-0.08334c-0.0786,-0.02236 -0.15855,-0.0393 -0.23986,-0.05082c-0.08131,-0.01084 -0.16295,-0.01626 -0.24494,-0.01626h-241.90116c-0.05813,0 -0.11613,0.00271 -0.174,0.00813c-0.05786,0.00542 -0.11532,0.01389 -0.17237,0.02541c-0.05705,0.01152 -0.11339,0.02575 -0.16902,0.04269c-0.05563,0.01694 -0.11031,0.03625 -0.16404,0.05793c-0.05373,0.02236 -0.10624,0.04743 -0.15753,0.07521c-0.05129,0.0271 -0.10109,0.05692 -0.1494,0.08944c-0.04838,0.03252 -0.09503,0.06708 -0.13995,0.10367c-0.04492,0.03659 -0.08795,0.07555 -0.12908,0.11688c-0.04113,0.04133 -0.08012,0.08436 -0.11698,0.12908c-0.03693,0.0454 -0.07155,0.09215 -0.10387,0.14026c-0.03225,0.04811 -0.0621,0.09791 -0.08954,0.1494c-0.02744,0.05149 -0.05227,0.10401 -0.0745,0.15753c-0.02222,0.05353 -0.04181,0.10807 -0.05874,0.16363c-0.01687,0.05556 -0.03096,0.11214 -0.04228,0.16973c-0.01132,0.05692 -0.01985,0.11417 -0.02561,0.17176c-0.00569,0.05827 -0.00854,0.1162 -0.00854,0.17379c0,0.08198 0.00566,0.16363 0.01697,0.24494c0.01132,0.08131 0.02819,0.1616 0.05061,0.24087c0.02243,0.0786 0.05017,0.1555 0.08324,0.23071c0.03313,0.07521 0.07125,0.14771 0.11434,0.2175c0.04316,0.06979 0.09089,0.13619 0.1432,0.1992c0.05238,0.06301 0.10882,0.1223 0.16932,0.17786c0.06057,0.05556 0.12467,0.10638 0.19229,0.15245c0.06762,0.04675 0.13812,0.08842 0.2115,0.12501l21.73466,10.86672c0.05197,0.02642 0.10512,0.05014 0.15946,0.07114c0.05427,0.02033 0.10946,0.03828 0.16556,0.05387c0.0561,0.01558 0.11281,0.02812 0.17014,0.0376c0.05732,0.00949 0.11498,0.01626 0.17298,0.02033c0.058,0.00474 0.11603,0.0061 0.1741,0.00407c0.05813,-0.00136 0.11607,-0.00576 0.17379,-0.01321c0.05766,-0.00745 0.11485,-0.01762 0.17156,-0.03049c0.05671,-0.01287 0.11264,-0.02846 0.1678,-0.04675c0.05515,-0.01829 0.10929,-0.0393 0.16241,-0.06301c0.05305,-0.02371 0.10485,-0.0498 0.1554,-0.07826c0.05055,-0.02914 0.09953,-0.0603 0.14696,-0.0935c0.04743,-0.03388 0.0931,-0.06979 0.137,-0.10773c0.04397,-0.03862 0.08595,-0.07894 0.12592,-0.12094c0.03998,-0.04201 0.07778,-0.08605 0.11342,-0.13212c0.03564,-0.04607 0.06894,-0.0935 0.09991,-0.14229c0.03103,-0.04946 0.05952,-0.10028 0.08547,-0.15245c0.12501,-0.25002 0.18751,-0.51461 0.18751,-0.79376v-9.09219zM375.99045,328.31017v6.21899l12.439,-6.21899zM174.00843,328.31017h-12.43839l12.43839,6.21899z" fill-rule="evenodd"></path></g><g data-paper-data="{&quot;isSecondaryText&quot;:true}" fill-rule="nonzero"><path d="M174.36752,226.58634v0c3.01907,0.40844 4.44873,-1.53958 4.85153,-4.517c0.4028,-2.97742 -0.45505,-5.25611 -3.47411,-5.66454l-5.95485,-0.80561c-0.54135,-0.07324 -1.19746,-0.39522 -1.63691,-0.75151l-0.6197,4.58065c0.51832,-0.22671 1.2364,-0.36279 1.77775,-0.28955l6.53784,0.88448c1.18681,0.16056 1.97005,0.79658 1.82921,1.83763c-0.14084,1.04106 -1.06493,1.4461 -2.25173,1.28554l-6.53784,-0.88448c-0.54135,-0.07324 -1.19746,-0.39522 -1.63691,-0.75151l-0.6197,4.58065c0.52114,-0.24753 1.23922,-0.38361 1.78057,-0.31037z" data-paper-data="{&quot;glyphName&quot;:&quot;U&quot;,&quot;glyphIndex&quot;:0,&quot;firstGlyphOfWord&quot;:true,&quot;word&quot;:1}"></path><path d="M184.02352,202.30354v0l1.47113,-4.38203c-0.55174,0.12506 -1.2826,0.12349 -1.80048,-0.05037l-7.98725,-2.68147c-0.51788,-0.17386 -1.10162,-0.61363 -1.46613,-1.04629l-1.47113,4.38203c0.48487,0.07413 1.12211,0.35455 1.55975,0.76743l3.19617,2.95689l-4.33295,0.42922c-0.59812,0.06516 -1.28217,-0.07584 -1.71355,-0.30931l-1.47113,4.38203c0.55843,-0.14497 1.28929,-0.14341 1.80716,0.03045l7.98725,2.68147c0.51788,0.17386 1.10162,0.61363 1.45944,1.06621l0.98298,-2.92799c-0.55843,0.14497 -1.28929,0.14341 -1.80716,-0.03045l-5.39786,-1.81216l8.10108,-0.82644l-5.95471,-5.5009l5.37795,1.80548c0.51788,0.17386 1.10162,0.61363 1.45944,1.06621z" data-paper-data="{&quot;glyphName&quot;:&quot;M&quot;,&quot;glyphIndex&quot;:1,&quot;word&quot;:1}"></path><path d="M184.69708,189.80133v0c2.65212,1.49928 4.70242,0.22063 6.18102,-2.39491c1.4786,-2.61554 1.52729,-5.04986 -1.12483,-6.54914l-5.23108,-2.9572c-0.47555,-0.26884 -0.9654,-0.81125 -1.24132,-1.30513l-2.27477,4.02391c0.56544,-0.01825 1.28276,0.12177 1.75832,0.39061l5.74321,3.24672c1.04256,0.58937 1.53397,1.47057 1.01698,2.38509c-0.51699,0.91452 -1.5254,0.94785 -2.56796,0.35848l-5.74321,-3.24672c-0.47555,-0.26884 -0.9654,-0.81125 -1.24132,-1.30513l-2.27477,4.02391c0.57578,-0.03654 1.2931,0.10348 1.76866,0.37232z" data-paper-data="{&quot;glyphName&quot;:&quot;U&quot;,&quot;glyphIndex&quot;:2,&quot;word&quot;:1}"></path><path d="M202.67575,170.84282v0l2.99474,-3.52107c-0.55869,-0.08902 -1.23658,-0.36217 -1.65271,-0.7161l-6.41796,-5.45859c-0.41613,-0.35392 -0.79455,-0.97919 -0.97209,-1.51634l-2.99474,3.52107c0.42256,0.24907 0.90989,0.74629 1.16266,1.29227l1.86787,3.93317l-4.18198,-1.21234c-0.57948,-0.16186 -1.16209,-0.54706 -1.47575,-0.92416l-2.99474,3.52107c0.5723,0.07301 1.2502,0.34617 1.66632,0.70009l6.41796,5.45859c0.41613,0.35392 0.79455,0.97919 0.95848,1.53235l2.00103,-2.35272c-0.5723,-0.07301 -1.2502,-0.34617 -1.66632,-0.70009l-4.33732,-3.68897l7.82771,2.24441l-3.48295,-7.32035l4.32132,3.67536c0.41613,0.35392 0.79455,0.97919 0.95848,1.53235z" data-paper-data="{&quot;glyphName&quot;:&quot;M&quot;,&quot;glyphIndex&quot;:3,&quot;lastGlyphOfWord&quot;:true,&quot;word&quot;:1}"></path><path d="M223.99107,152.78007c-1.69953,-0.94668 -5.07413,-6.44709 -6.21337,-8.18744c1.19539,-0.78251 2.84149,-1.10669 3.92313,-0.83537l-2.03169,-2.33643l-8.24469,5.39704l1.32851,2.79673c0.18406,-1.09986 1.1397,-2.4788 2.35267,-3.27282c1.13925,1.74035 4.83027,7.03362 5.0004,8.98146z" data-paper-data="{&quot;glyphName&quot;:&quot;T&quot;,&quot;glyphIndex&quot;:4,&quot;firstGlyphOfWord&quot;:true,&quot;word&quot;:2}"></path><path d="M232.83731,147.93214c-0.31225,-0.38977 -0.59513,-1.0228 -0.64536,-1.59869l-0.06983,-0.77426l3.49124,-1.56012l0.53021,0.56853c0.39552,0.4216 0.69758,1.04606 0.76046,1.54726l4.22018,-1.88586c-0.61918,-0.25262 -1.34326,-0.68848 -1.73877,-1.11009l-7.32464,-7.84226l-3.62552,1.62012c0.40571,0.18691 0.72408,0.43587 1.0702,0.69544l0.84492,9.56415c0.05023,0.5759 -0.08891,1.39751 -0.33295,2.03587zM231.97999,143.85067l-0.42672,-4.25087l2.90128,3.14507z" data-paper-data="{&quot;glyphName&quot;:&quot;A&quot;,&quot;glyphIndex&quot;:5,&quot;word&quot;:2}"></path><path d="M246.43501,131.75262c-0.254,-0.86703 -1.16056,-1.34584 -2.02758,-1.09184c-0.86703,0.254 -1.37191,1.1463 -1.11791,2.01332c0.24809,0.84686 1.11432,1.33749 1.95283,1.13563c0.02567,0.38657 -0.28899,0.80716 -0.61161,0.90167l0.19879,0.37964c1.25013,-0.36623 2.01896,-1.92699 1.60547,-3.33843z" data-paper-data="{&quot;glyphName&quot;:&quot;'&quot;,&quot;glyphIndex&quot;:6,&quot;word&quot;:2}"></path><path d="M255.93622,140.01669v0l8.70605,-1.30647l-0.09486,-5.02109c-0.8393,2.33554 -2.86717,3.82964 -5.33977,4.20069c0.28256,-0.38234 0.39992,-1.01609 0.30014,-1.68099l-1.02585,-6.83602c-0.08107,-0.54023 0.04459,-1.26021 0.26377,-1.78176l-4.5712,0.68598c0.38339,0.43113 0.71484,1.08251 0.79591,1.62274l1.25035,8.33205c0.08107,0.54023 -0.04459,1.26021 -0.28455,1.78488z" data-paper-data="{&quot;glyphName&quot;:&quot;L&quot;,&quot;glyphIndex&quot;:7,&quot;word&quot;:2}"></path><path d="M271.54118,138.19369v0l4.62206,-0.05463c-0.29984,-0.47974 -0.53914,-1.17032 -0.5456,-1.71656l-0.09957,-8.42475c-0.00646,-0.54624 0.21645,-1.24228 0.50487,-1.72898l-4.62206,0.05463c0.32085,0.47949 0.56015,1.17007 0.5666,1.71631l0.09957,8.42475c0.00646,0.54624 -0.21645,1.24228 -0.52588,1.72922z" data-paper-data="{&quot;glyphName&quot;:&quot;I&quot;,&quot;glyphIndex&quot;:8,&quot;word&quot;:2}"></path><path d="M291.19868,139.69068v0l4.57251,0.67721c-0.22018,-0.52113 -0.34722,-1.24087 -0.26719,-1.78125l1.23436,-8.33443c0.08003,-0.54039 0.41024,-1.1924 0.77202,-1.62734l-4.57251,-0.67721c0.01234,0.49035 -0.1516,1.16699 -0.48104,1.67044l-2.34843,3.66655l-1.18487,-4.18985c-0.16938,-0.57733 -0.15093,-1.27551 0.003,-1.74124l-4.57251,-0.67721c0.24096,0.52421 0.36801,1.24394 0.28797,1.78433l-1.23436,8.33443c-0.08003,0.54039 -0.41024,1.1924 -0.7928,1.62426l3.05526,0.4525c-0.24096,-0.52421 -0.36801,-1.24394 -0.28797,-1.78433l0.83419,-5.6325l2.23885,7.82931l4.36742,-6.82965l-0.83112,5.61171c-0.08003,0.54039 -0.41024,1.1924 -0.7928,1.62426z" data-paper-data="{&quot;glyphName&quot;:&quot;M&quot;,&quot;glyphIndex&quot;:9,&quot;lastGlyphOfWord&quot;:true,&quot;word&quot;:2}"></path><path d="M318.80857,148.81662v0l4.16314,2.00865c-0.05493,-0.56306 0.03821,-1.28796 0.27559,-1.77997l3.66122,-7.58827c0.23739,-0.49201 0.74684,-1.01605 1.22176,-1.32346l-4.16314,-2.00865c-0.1343,0.47176 -0.49237,1.06884 -0.95684,1.45128l-3.3341,2.80045l0.11713,-4.35259c0.01031,-0.60157 0.23591,-1.26256 0.5216,-1.66128l-4.16314,-2.00865c0.07386,0.57219 -0.01929,1.29709 -0.25667,1.7891l-3.66122,7.58827c-0.23739,0.49201 -0.74684,1.01605 -1.24069,1.31433l2.78173,1.34214c-0.07386,-0.57219 0.01929,-1.29709 0.25667,-1.7891l2.47429,-5.12823l-0.19523,8.14078l6.20373,-5.21845l-2.46516,5.10931c-0.23739,0.49201 -0.74684,1.01605 -1.24069,1.31433z" data-paper-data="{&quot;glyphName&quot;:&quot;M&quot;,&quot;glyphIndex&quot;:10,&quot;firstGlyphOfWord&quot;:true,&quot;word&quot;:3}"></path><path d="M330.2617,155.60472c0.18701,-0.46309 0.60053,-1.01964 1.07811,-1.34536l0.64096,-0.43992l3.06948,2.28058l-0.23619,0.74065c-0.17401,0.55127 -0.57066,1.12036 -0.97692,1.42054l3.71036,2.75675c-0.08283,-0.66358 -0.05722,-1.50833 0.11679,-2.05961l3.25267,-10.22602l-3.18754,-2.36829c0.03562,0.44527 -0.02561,0.84476 -0.08251,1.27364l-7.92617,5.41873c-0.47758,0.32572 -1.26213,0.6066 -1.93824,0.7063zM333.40099,152.85915l3.49779,-2.45304l-1.32217,4.06949z" data-paper-data="{&quot;glyphName&quot;:&quot;A&quot;,&quot;glyphIndex&quot;:11,&quot;word&quot;:3}"></path><path d="M341.78069,164.81344v0l3.15139,3.38159c0.15299,-0.54466 0.50266,-1.18644 0.9023,-1.55888l2.95121,-2.7503c0.40148,1.2629 -0.98352,4.70764 -2.09159,6.1998l3.06544,3.28937c0.29125,-1.9372 1.63263,-4.56583 2.11638,-6.48138c0.263,-1.13542 0.12217,-1.77963 -0.55108,-2.50206c1.98854,0.0998 4.94271,0.21876 6.9187,0.67491l-2.30624,-2.47471c-1.56404,0.5098 -4.59506,0.46246 -6.18324,0.39163l2.24415,-2.09138c0.39964,-0.37244 1.06445,-0.67607 1.61852,-0.79034l-3.15139,-3.38159c-0.13866,0.56003 -0.48833,1.20181 -0.88797,1.57425l-6.16372,5.74412c-0.39964,0.37244 -1.06445,0.67607 -1.63285,0.77497z" data-paper-data="{&quot;glyphName&quot;:&quot;K&quot;,&quot;glyphIndex&quot;:12,&quot;word&quot;:3}"></path><path d="M357.20825,183.96447c0.94705,-1.69932 6.4482,-5.07272 8.1888,-6.21158c0.78225,1.19556 1.10607,2.84173 0.83451,3.92332l2.33687,-2.03117l-5.39523,-8.24587l-2.79702,1.3279c1.09982,0.1843 2.47855,1.14024 3.2723,2.35339c-1.7406,1.13887 -7.03468,4.82873 -8.98255,4.99844z" data-paper-data="{&quot;glyphName&quot;:&quot;T&quot;,&quot;glyphIndex&quot;:13,&quot;word&quot;:3}"></path><path d="M362.05225,192.81307c0.38983,-0.31218 1.02291,-0.59493 1.59882,-0.64505l0.77427,-0.06968l1.55944,3.49154l-0.56863,0.5301c-0.42168,0.39544 -1.04619,0.69738 -1.54741,0.76016l1.88504,4.22055c0.25274,-0.61913 0.68874,-1.34312 1.11042,-1.73856l7.84367,-7.32312l-1.61942,-3.62583c-0.18699,0.40567 -0.43601,0.724 -0.69564,1.07007l-9.56431,0.84307c-0.57591,0.05012 -1.39749,-0.08918 -2.03581,-0.33335zM366.13388,191.95655l4.25095,-0.4259l-3.14563,2.90068z" data-paper-data="{&quot;glyphName&quot;:&quot;A&quot;,&quot;glyphIndex&quot;:14,&quot;word&quot;:3}"></path><path d="M367.59174,206.51525v0c0.52768,2.12046 0.81153,3.52213 1.24787,5.27558c0.59363,2.38551 1.92099,4.84826 4.6939,4.15822c1.32529,-0.3298 2.0248,-1.6081 2.0669,-2.83107c0.45279,0.68843 1.57832,1.29606 2.84244,0.98149c1.59034,-0.39576 2.89129,-1.78043 2.03889,-5.20578c-0.40083,-1.61073 -0.96938,-3.63441 -1.37021,-5.24514c-0.39284,0.42253 -1.00987,0.81425 -1.53998,0.94617l-8.17599,2.0346c-0.53011,0.13192 -1.25876,0.07508 -1.80382,-0.11406zM373.94344,209.15669v0c0.33994,1.36606 0.56761,2.88998 -1.22662,3.33647c-1.77384,0.44142 -2.28188,-0.99107 -2.6269,-2.37752zM378.8103,208.87659v0c0.33487,1.34567 -0.33327,1.88002 -1.08766,2.06775c-1.44762,0.36024 -2.04238,-0.98572 -2.33159,-2.14789l3.07874,-0.76614c0.14244,0.22437 0.24918,0.47928 0.34051,0.84628z" data-paper-data="{&quot;glyphName&quot;:&quot;B&quot;,&quot;glyphIndex&quot;:15,&quot;word&quot;:3}"></path><path d="M371.11074,222.89112v0l0.46986,4.59844c0.45085,-0.34175 1.11712,-0.64215 1.66057,-0.69768l8.3817,-0.85643c0.54345,-0.05553 1.25671,0.10391 1.76736,0.34742l-0.46986,-4.59844c-0.44871,0.36265 -1.11498,0.66305 -1.65843,0.71858l-8.3817,0.85643c-0.54345,0.05553 -1.25671,-0.10391 -1.76949,-0.36832z" data-paper-data="{&quot;glyphName&quot;:&quot;I&quot;,&quot;glyphIndex&quot;:16,&quot;lastGlyphOfWord&quot;:true,&quot;word&quot;:3}"></path></g><g data-paper-data="{&quot;isContainerElementsWrapper&quot;:true}" fill-rule="evenodd"><path d="M224.78452,116.14105c15.9842,-6.7607 32.72262,-10.14105 50.21528,-10.14105c17.49255,0 34.23026,3.38035 50.21426,10.14105c15.43415,6.52803 29.10157,15.74203 41.00225,27.64202c11.9,11.89942 21.11381,25.56647 27.64143,41.00115c6.76138,15.98406 10.14207,32.72252 10.14207,50.21538c0,14.80504 -2.42194,29.07071 -7.26684,42.79741h-0.00102c-0.08639,-0.01321 -0.17278,-0.02338 -0.25917,-0.03151c-0.08639,-0.00915 -0.17379,-0.01525 -0.2612,-0.01931c-0.08639,-0.00508 -0.17379,-0.00711 -0.2612,-0.00711h-1.3497c4.91367,-13.69892 7.37051,-27.94541 7.37051,-42.73948c0,-17.21858 -3.32716,-33.69353 -9.98149,-49.42487c-6.42632,-15.19216 -15.49514,-28.64448 -27.20847,-40.35687c-11.71367,-11.71367 -25.1663,-20.78299 -40.35789,-27.20796c-15.73093,-6.65392 -32.20544,-9.98088 -49.42355,-9.98088c-17.21834,0 -33.69323,3.32699 -49.42477,9.98088c-15.19135,6.42538 -28.64366,15.49471 -40.35693,27.20799c-11.71322,11.71324 -20.78255,25.16556 -27.208,40.35694c-6.65392,15.73154 -9.98088,32.20646 -9.98088,49.42477c0,14.79538 2.4565,29.04225 7.36949,42.73948h-1.3495c-0.0872,0 -0.1743,0.00203 -0.2613,0.00711c-0.08707,0.00407 -0.174,0.0105 -0.26079,0.01931c-0.08669,0.00813 -0.17318,0.01829 -0.25947,0.03151h-0.00203c-4.84361,-13.72602 -7.26542,-27.99183 -7.26542,-42.79741c0,-17.49265 3.38035,-34.23108 10.14105,-50.21528c6.52816,-15.43422 15.74221,-29.10128 27.64214,-41.00118c11.89968,-11.89976 25.56672,-21.11379 41.00113,-27.64209zM189.78952,331.86126c10.43128,9.20907 22.09631,16.54095 34.9951,21.99667c15.98532,6.76172 32.72374,10.14207 50.21517,10.14207c17.49184,0 34.23026,-3.38035 50.21528,-10.14207c12.90008,-5.4564 24.5653,-12.78862 34.99567,-21.99667h-3.09882c-9.81447,8.35297 -20.71032,15.06251 -32.68756,20.12863c-15.7316,6.65432 -32.20646,9.98149 -49.42456,9.98149c-17.21709,0 -33.69204,-3.32716 -49.42487,-9.98149c-11.97629,-5.06544 -22.87222,-11.77499 -32.68779,-20.12863z" data-paper-data="{&quot;isAdditionalOutlinePath&quot;:true}"></path><path d="M162.35272,187.41156c6.1866,-14.62664 14.91975,-27.57983 26.19945,-38.85958c11.27968,-11.27971 24.23288,-20.01286 38.85959,-26.19946c15.1445,-6.40559 31.00718,-9.60839 47.58803,-9.60839c16.58052,0 32.44286,3.2028 47.58702,9.60839c14.6265,6.18633 27.58011,14.91948 38.86082,26.19945c11.27935,11.27914 20.01243,24.23234 26.19924,38.85959c6.40566,15.14429 9.60849,31.00697 9.60849,47.58803c0,14.81913 -2.55881,29.06563 -7.67642,42.73948h-3.79908c5.28294,-13.65353 7.92441,-27.90002 7.92441,-42.73948c0,-16.10098 -3.10899,-31.50261 -9.32798,-46.20479c-6.00658,-14.20201 -14.48625,-26.77934 -25.43902,-37.732c-10.95412,-10.95336 -23.53168,-19.43332 -37.73268,-25.4399c-14.70239,-6.21858 -30.10399,-9.32788 -46.20479,-9.32788c-16.10087,0 -31.50247,3.10929 -46.20479,9.32788c-14.20147,6.00678 -26.77881,14.48674 -37.73202,25.43989c-10.95314,10.9532 -19.4331,23.53054 -25.43988,37.73201c-6.21858,14.70232 -9.32788,30.10392 -9.32788,46.20479c0,14.84081 2.64164,29.08731 7.92492,42.73948h-3.79969c-5.11741,-13.67317 -7.67612,-27.91967 -7.67612,-42.73948c0,-16.58089 3.2028,-32.44354 9.60839,-47.58803zM200.36828,331.86126c8.26988,6.39617 17.28437,11.65811 27.04348,15.78581c15.14551,6.406 31.00816,9.60849 47.58803,9.60849c16.58049,0 32.44354,-3.20249 47.58803,-9.60849c9.76026,-4.12838 18.77487,-9.39031 27.04382,-15.78581h-5.95982c-6.97312,4.95771 -14.46253,9.12878 -22.46825,12.51522c-14.70137,6.21899 -30.103,9.32798 -46.20378,9.32798c-16.09986,0 -31.50146,-3.10933 -46.20479,-9.32798c-8.00484,-3.38577 -15.49392,-7.55751 -22.46723,-12.51522z" data-paper-data="{&quot;isBaseLogoContainer&quot;:true}"></path></g></g></g></svg>